<?xml version="1.0" standalone="no"?>
<!DOCTYPE svg PUBLIC "-//W3C//DTD SVG 20010904//EN" "http://www.w3.org/TR/2001/REC-SVG-20010904/DTD/svg10.dtd">
<svg version="1.0" xmlns="http://www.w3.org/2000/svg" width="453.000000pt" height="457.000000pt" viewBox="0 0 453.000000 457.000000" preserveAspectRatio="xMidYMid meet">
  <metadata>
Created by potrace 1.16, written by Peter Selinger 2001-2019
</metadata>
  <g transform="translate(0.000000,457.000000) scale(0.100000,-0.100000)" fill="#000000" stroke="none">
    <path d="M182 2298 l3 -2073 2070 0 2070 0 3 2073 2 2072 -2075 0 -2075 0 2
-2072z m4117 1100 l0 -953 -39 130 c-21 72 -56 173 -77 226 l-39 96 32 42 c86
112 116 266 54 286 -51 16 -86 -43 -102 -175 l-11 -90 -47 88 c-25 48 -58 104
-71 125 l-26 37 25 72 c48 140 41 344 -14 403 -36 39 -83 32 -107 -15 -31 -59
-8 -236 49 -385 5 -11 -19 9 -53 45 -33 36 -94 87 -136 114 l-74 49 28 46 c76
123 76 334 0 410 -38 38 -160 7 -162 -42 l0 -22 -9 23 c-12 27 -40 29 -40 2 0
-11 5 -20 10 -20 6 0 10 -4 10 -10 0 -18 -29 -11 -40 10 -6 11 -17 20 -25 20
-19 0 -20 -29 -2 -44 11 -9 11 -17 -4 -46 l-17 -35 -11 28 c-12 31 -41 37 -41
7 0 -11 4 -20 8 -20 5 0 14 -10 19 -23 9 -19 8 -26 -8 -35 -16 -10 -21 -8 -35
13 -19 29 -32 32 -41 9 -4 -10 1 -20 11 -26 24 -14 10 -28 -29 -28 -25 0 -37
-6 -46 -22 -6 -13 -22 -35 -36 -49 -23 -25 -23 -28 -10 -60 8 -19 33 -51 57
-73 102 -92 236 -117 337 -62 l51 28 54 -28 c29 -16 92 -67 139 -114 132 -131
236 -304 333 -551 43 -111 107 -323 122 -404 7 -39 6 -39 -12 -24 -122 105
-410 309 -435 309 -5 0 -9 28 -9 63 0 181 -72 337 -156 337 -86 0 -67 -124 46
-290 22 -33 38 -60 35 -60 -3 0 -27 11 -53 24 -68 34 -189 74 -249 82 -29 3
-53 10 -53 14 0 4 8 25 17 46 12 29 17 67 17 144 -1 126 -30 230 -94 328 -61
96 -164 151 -189 103 -6 -10 -24 -21 -40 -24 -50 -10 -73 -42 -69 -93 4 -51
-3 -55 -30 -17 -13 17 -25 24 -36 20 -25 -10 -19 -36 10 -47 28 -11 28 -27 0
-44 -14 -9 -21 -6 -36 12 -21 25 -45 29 -53 8 -6 -16 9 -32 36 -37 10 -2 18
-7 18 -11 -1 -5 -1 -36 -1 -70 l0 -62 -35 38 c-22 24 -40 36 -50 32 -22 -8
-18 -35 8 -46 37 -15 69 -48 61 -62 -22 -38 -36 -47 -60 -36 -13 6 -24 15 -24
20 0 5 -10 8 -22 6 -34 -5 -28 -31 10 -42 17 -5 32 -12 32 -16 0 -11 -22 -27
-50 -35 -37 -11 -60 -35 -60 -64 0 -14 -9 -46 -20 -69 -22 -47 -18 -62 22 -98
81 -74 262 -112 397 -83 66 14 159 75 195 128 29 42 30 43 75 36 75 -11 217
-62 322 -116 97 -50 314 -187 307 -195 -2 -2 -26 4 -53 12 -28 9 -88 16 -135
16 -69 1 -93 -3 -127 -21 -56 -28 -66 -62 -29 -99 25 -25 32 -27 109 -26 73 1
133 13 297 60 8 3 52 -25 98 -62 l82 -67 0 -1024 0 -1023 -2035 0 c-1119 0
-2035 2 -2035 4 0 2 34 31 75 65 l74 62 83 -25 c177 -54 294 -58 338 -11 33
35 21 71 -33 95 -52 24 -191 27 -260 6 -26 -8 -47 -12 -47 -10 0 2 48 36 108
75 185 123 429 229 523 229 20 0 44 -17 91 -63 82 -83 147 -109 268 -110 133
-1 282 53 321 117 16 27 16 30 -2 70 -10 22 -19 53 -19 68 0 33 -23 57 -61 65
-56 11 -62 47 -9 55 28 3 40 35 16 44 -8 3 -27 -4 -42 -15 -34 -27 -45 -26
-68 5 -18 25 -18 26 4 49 12 13 33 26 46 29 15 4 24 14 24 26 0 30 -32 25 -66
-11 l-29 -31 -5 59 c-6 63 2 83 31 83 12 0 19 7 19 19 0 32 -19 35 -47 7 -20
-20 -29 -23 -44 -15 -27 14 -24 38 6 49 29 11 31 22 9 41 -14 11 -19 9 -35
-11 -10 -14 -19 -28 -19 -32 0 -5 -4 -8 -9 -8 -5 0 -6 20 -3 45 6 55 -12 79
-70 97 -21 6 -38 15 -38 19 0 5 -9 13 -20 19 -49 26 -149 -63 -206 -183 -70
-149 -82 -316 -29 -439 5 -14 -1 -18 -32 -23 -68 -11 -176 -46 -251 -81 -41
-18 -72 -30 -70 -26 2 4 25 40 52 81 80 121 103 202 70 249 -34 49 -105 10
-148 -81 -29 -62 -46 -148 -46 -232 l0 -62 -86 -53 c-74 -45 -242 -167 -351
-256 l-32 -26 34 129 c123 477 332 838 563 974 l62 36 56 -28 c96 -49 193 -37
301 37 57 39 93 88 93 125 0 14 -17 42 -41 68 -31 34 -45 42 -65 38 -30 -5
-39 6 -19 23 8 7 15 19 15 26 0 22 -37 16 -43 -6 -6 -23 -29 -26 -46 -6 -8 10
-6 19 10 40 21 26 20 56 -1 56 -6 0 -16 -14 -22 -30 l-10 -31 -17 33 c-14 27
-15 36 -4 49 19 23 16 39 -7 39 -11 0 -20 -6 -20 -14 0 -18 -17 -29 -30 -21
-8 5 -7 11 1 21 13 15 6 44 -11 44 -6 0 -15 -10 -20 -22 -6 -17 -9 -18 -9 -6
-1 28 -30 48 -70 48 -20 0 -41 4 -47 10 -6 6 -17 5 -32 -6 -90 -63 -95 -308
-9 -426 19 -26 26 -43 18 -46 -33 -11 -137 -90 -195 -148 -62 -63 -65 -64 -55
-33 31 97 59 230 59 279 0 64 -15 99 -51 119 -24 13 -29 13 -53 -2 -79 -52
-94 -245 -32 -429 l22 -66 -20 -28 c-11 -15 -44 -70 -72 -122 l-52 -94 -7 59
c-15 138 -44 203 -90 203 -77 0 -60 -157 32 -277 18 -24 33 -47 33 -51 0 -5
-18 -55 -39 -113 -22 -57 -55 -156 -75 -219 l-35 -115 -1 1978 0 1977 2045 0
2045 0 -1 -952z m-608 506 c25 -41 37 -149 24 -231 -9 -61 -16 -44 -40 97 -10
58 -22 109 -26 114 -21 23 -20 -12 1 -127 16 -88 20 -135 15 -163 l-9 -39 -6
45 c-3 25 -23 77 -43 116 -44 85 -66 176 -48 198 7 8 31 17 54 19 23 2 45 4
49 5 3 1 16 -14 29 -34z m-201 -81 c0 -10 20 -58 45 -107 29 -57 45 -101 45
-125 l0 -36 -20 25 c-11 14 -29 53 -41 87 -22 67 -52 113 -65 100 -4 -4 -1
-20 9 -36 9 -15 27 -59 41 -97 l25 -69 -64 70 c-66 72 -76 91 -50 101 8 3 19
22 26 42 18 57 49 85 49 45z m-178 -150 c8 -10 28 -42 44 -72 31 -59 70 -93
130 -115 38 -14 38 -15 9 -15 -63 -1 -139 54 -206 150 -29 41 -33 12 -5 -35
34 -58 99 -113 156 -132 l45 -14 -48 5 c-57 6 -114 34 -168 82 -62 56 -64 65
-28 117 33 50 48 56 71 29z m657 -11 c42 -60 51 -164 25 -290 -22 -110 -34
-112 -34 -7 0 137 -12 285 -23 285 -5 0 -8 -58 -6 -149 2 -83 1 -144 -2 -138
-16 29 -41 157 -43 212 -1 43 4 69 17 88 22 35 41 34 66 -1z m-666 -308 c59
-78 99 -192 103 -299 4 -89 4 -90 -9 -43 -12 42 -179 332 -198 344 -4 2 -10 0
-13 -5 -3 -5 24 -58 61 -117 111 -183 121 -205 133 -283 7 -40 10 -75 7 -77
-3 -3 -12 16 -21 42 -25 75 -63 131 -112 166 -86 61 -194 211 -194 268 0 22
52 60 82 60 10 0 23 9 30 20 12 19 13 19 53 -4 22 -13 57 -45 78 -72z m-233
-103 c0 -19 106 -141 163 -187 59 -48 95 -103 115 -178 11 -38 11 -38 -10 -20
-11 11 -33 44 -48 74 -34 67 -97 140 -157 181 -53 37 -110 119 -90 131 16 10
27 10 27 -1z m34 -141 c74 -55 120 -106 161 -179 19 -35 34 -65 33 -66 -11
-11 -116 77 -163 135 -57 72 -110 114 -128 103 -6 -3 6 -19 26 -35 20 -16 59
-58 87 -93 28 -35 71 -77 97 -94 26 -17 42 -31 37 -31 -21 0 -139 51 -183 79
-25 16 -67 39 -93 52 l-46 22 21 29 c17 23 21 41 19 90 -2 51 1 65 20 85 l22
24 20 -41 c11 -25 39 -57 70 -80z m615 -100 c37 -37 68 -119 81 -212 10 -65 7
-100 -4 -67 -8 21 -87 241 -98 268 -6 16 -12 21 -19 14 -6 -6 4 -46 30 -118
22 -60 39 -111 37 -113 -5 -4 -65 98 -84 141 -13 30 -16 99 -5 110 13 14 32 6
62 -23z m-786 -155 c43 -36 92 -73 110 -82 40 -21 177 -29 232 -15 37 10 38
10 20 -4 -37 -28 -125 -47 -194 -42 -79 6 -144 33 -213 88 -53 42 -68 48 -67
28 0 -16 81 -79 136 -106 78 -40 205 -49 281 -21 14 6 21 5 17 0 -3 -6 -31
-19 -63 -31 -106 -41 -258 -26 -372 36 -63 34 -73 53 -55 98 8 19 15 45 15 57
0 29 28 59 54 59 12 0 56 -29 99 -65z m1077 -386 c44 -14 40 -14 -109 -19
-111 -4 -156 -9 -159 -17 -3 -10 27 -13 125 -14 125 -1 127 -2 78 -14 -62 -16
-180 -19 -206 -5 -22 12 -25 43 -6 57 43 34 184 40 277 12z m-3066 -605 c9 -8
16 -21 16 -28 0 -33 -34 -135 -65 -193 -21 -40 -35 -80 -35 -102 0 -27 -3 -32
-10 -21 -15 23 -12 73 11 193 15 77 18 112 10 120 -13 13 -14 11 -41 -143 -19
-104 -24 -121 -32 -100 -6 14 -11 62 -11 107 -1 66 3 91 23 132 23 51 24 51
71 51 30 0 53 -6 63 -16z m117 -122 c6 -21 20 -47 32 -59 l20 -22 -53 -63
c-29 -35 -58 -66 -65 -70 -15 -9 36 134 56 158 8 10 9 18 2 25 -15 15 -38 -21
-64 -99 -12 -35 -31 -75 -44 -90 l-23 -26 8 51 c5 28 27 85 49 128 23 42 41
85 41 96 0 31 28 11 41 -29z m-457 -134 c21 -29 21 -132 1 -217 -26 -110 -32
-98 -27 58 3 96 1 151 -5 151 -12 0 -23 -127 -23 -270 0 -121 -12 -124 -36 -9
-18 82 -14 210 6 250 32 61 59 73 84 37z m646 13 c0 -5 12 -23 26 -40 l26 -31
-21 -34 c-38 -61 -130 -117 -216 -130 l-40 -6 47 19 c25 10 61 29 78 41 42 30
106 128 92 142 -7 7 -22 -8 -45 -45 -39 -60 -75 -90 -138 -112 -64 -23 -93
-17 -34 6 64 26 98 59 142 137 28 49 40 62 59 62 13 0 24 -4 24 -9z m90 -251
c11 -11 28 -20 39 -20 25 0 71 -38 71 -59 0 -47 -58 -130 -166 -237 -98 -98
-115 -119 -135 -175 -27 -72 -36 -59 -20 28 13 68 32 107 129 265 40 64 72
119 72 122 0 4 -6 6 -13 6 -8 0 -39 -42 -69 -92 -30 -51 -70 -117 -88 -146
-18 -29 -39 -74 -46 -100 l-13 -47 0 64 c-2 154 89 342 194 399 26 14 22 15
45 -8z m118 -217 c-12 -20 -54 -62 -93 -94 -73 -60 -119 -115 -149 -179 -9
-19 -28 -48 -42 -65 l-25 -30 6 30 c15 74 52 131 129 200 43 38 98 98 123 132
35 50 48 61 58 53 11 -9 10 -18 -7 -47z m68 -8 c12 -19 15 -37 10 -71 -7 -52
8 -95 49 -137 15 -16 25 -30 24 -31 -2 -2 -38 -21 -79 -43 -41 -22 -96 -52
-123 -67 -33 -20 -66 -29 -110 -33 l-62 -4 80 29 c44 15 109 46 145 68 36 22
77 45 93 52 28 12 37 32 14 32 -7 0 -53 -23 -102 -51 -89 -51 -248 -118 -195
-82 49 33 236 231 227 240 -11 10 -70 -37 -112 -90 -55 -69 -93 -105 -138
-128 l-39 -20 34 63 c34 65 87 124 171 192 27 21 56 53 65 72 19 41 26 42 48
9z m-668 -207 c2 -26 -6 -57 -27 -100 -31 -64 -80 -133 -66 -93 4 11 23 62 42
114 18 51 32 96 29 98 -12 12 -26 -16 -71 -139 -27 -73 -52 -137 -58 -143 -13
-15 3 100 24 170 36 117 120 179 127 93z m860 -96 c6 -9 12 -27 12 -40 0 -13
7 -39 16 -58 16 -33 15 -36 -2 -56 -26 -29 -126 -75 -193 -89 -83 -17 -186 -7
-251 24 -33 16 -43 23 -25 19 17 -4 71 -7 120 -7 76 0 99 4 145 26 52 24 141
91 148 110 8 21 -27 7 -66 -26 -22 -20 -67 -48 -99 -62 -77 -35 -181 -37 -266
-4 -32 13 -57 24 -55 26 2 2 28 -1 58 -7 67 -12 149 -4 204 21 23 10 70 44
106 76 88 77 116 86 148 47z m-960 -426 c36 -19 43 -50 13 -66 -27 -14 -125
-13 -197 3 l-59 12 123 5 c176 7 160 24 -28 30 l-155 5 65 17 c79 21 191 18
238 -6z" />
    <path d="M390 3750 c0 -267 3 -410 10 -410 7 0 10 140 10 400 l0 400 1170 0
c773 0 1170 3 1170 10 0 7 -400 10 -1180 10 l-1180 0 0 -410z" />
    <path d="M720 2825 l0 -385 55 0 55 0 2 287 3 287 184 -287 184 -287 53 0 54
0 0 385 0 385 -55 0 -55 0 -2 -284 -3 -284 -180 282 -181 281 -57 3 -57 3 0
-386z" />
    <path d="M1673 3193 c-11 -31 -260 -656 -277 -697 -9 -21 -16 -42 -16 -47 0
-5 26 -9 59 -9 l58 0 39 103 39 102 159 0 159 0 37 -100 38 -100 62 -3 c57 -3
62 -1 56 15 -4 10 -73 183 -153 386 l-146 367 -54 0 c-42 0 -55 -4 -60 -17z
m116 -278 c27 -72 53 -138 56 -147 7 -17 -2 -18 -109 -18 -64 0 -116 3 -116 7
0 12 112 294 116 291 1 -2 25 -62 53 -133z" />
    <path d="M2040 3160 l0 -50 105 0 105 0 0 -335 0 -335 55 0 55 0 0 335 0 335
105 0 105 0 0 50 0 50 -265 0 -265 0 0 -50z" />
    <path d="M1412 2038 c3 -290 4 -305 25 -344 27 -51 80 -98 130 -115 21 -8 74
-14 118 -14 44 0 97 6 118 14 50 17 103 64 130 115 21 39 22 54 25 344 l3 302
-55 0 -55 0 -3 -277 c-3 -322 -7 -336 -85 -374 -79 -38 -164 -17 -217 55 -20
26 -21 43 -24 312 l-3 284 -55 0 -55 0 3 -302z" />
    <path d="M2110 1960 l0 -380 55 0 55 0 0 150 0 150 33 0 c30 -1 40 -12 145
-151 l113 -150 132 3 131 3 36 95 36 95 159 3 160 2 38 -100 38 -100 60 0 c32
0 59 1 59 3 0 1 -67 171 -149 377 l-148 375 -55 3 -55 3 -136 -343 c-75 -189
-141 -358 -148 -375 -6 -18 -14 -33 -17 -32 -4 0 -59 66 -124 147 l-116 147
46 21 c55 24 105 77 122 129 19 57 9 163 -20 206 -52 79 -114 99 -307 99
l-143 0 0 -380z m284 276 c100 -42 110 -171 17 -233 -28 -19 -48 -23 -112 -23
l-79 0 0 135 0 135 70 0 c39 0 85 -6 104 -14z m673 -203 c29 -76 53 -141 53
-145 0 -4 -52 -8 -116 -8 -106 0 -116 1 -110 18 56 148 110 281 114 277 3 -3
29 -67 59 -142z" />
    <path d="M3430 1960 l0 -380 205 0 205 0 0 50 0 50 -150 0 -150 0 0 330 0 330
-55 0 -55 0 0 -380z" />
    <path d="M4100 1180 l0 -730 -830 0 c-547 0 -830 -3 -830 -10 0 -7 287 -10
840 -10 l840 0 0 740 c0 487 -3 740 -10 740 -7 0 -10 -250 -10 -730z" />
  </g>
</svg>